<svg version="1.1" id="Layer_1" xmlns="http://www.w3.org/2000/svg" xmlns:xlink="http://www.w3.org/1999/xlink" x="0px" y="0px"
	 width="100%" viewBox="0 0 522 399" enable-background="new 0 0 522 399" xml:space="preserve">
<path fill="#000F13" opacity="1.000000" stroke="none" 
	d="
M323.000000,400.000000 
	C215.362411,400.000000 108.224831,400.000000 1.043624,400.000000 
	C1.043624,267.065186 1.043624,134.130356 1.043624,1.097765 
	C174.887543,1.097765 348.775177,1.097765 522.831421,1.097765 
	C522.831421,133.999832 522.831421,266.999908 522.831421,400.000000 
	C456.463745,400.000000 389.981873,400.000000 323.000000,400.000000 
M204.457901,344.019684 
	C204.036392,343.994324 203.614868,343.968964 203.088058,343.170380 
	C203.123154,342.132355 203.158249,341.094299 203.893936,340.001648 
	C204.358398,339.940430 204.822845,339.879211 206.113495,339.865845 
	C207.422348,339.318085 209.557144,339.078094 209.895966,338.168884 
	C211.306030,334.384857 209.212128,330.750854 205.685272,330.043365 
	C201.350845,329.173920 198.439865,331.092621 198.126266,335.554260 
	C197.813889,339.998505 197.824493,344.492249 198.087097,348.941071 
	C198.276230,352.145294 200.297195,353.915894 203.672272,354.038879 
	C209.213364,354.240814 210.892548,351.406616 209.447540,343.756012 
	C208.018082,343.853119 206.554504,343.952576 204.457901,344.019684 
M354.967072,205.501099 
	C362.317780,204.801422 364.481689,201.107056 360.782349,194.885498 
	C344.741180,167.907318 328.539764,141.024414 312.493042,114.049507 
	C310.050934,109.944298 306.877777,107.804214 302.021820,107.799042 
	C285.723816,107.781693 269.425476,107.530762 253.128937,107.634239 
	C251.617142,107.643837 249.560089,109.192062 248.698502,110.601776 
	C240.559921,123.917747 232.618546,137.354355 224.637558,150.766434 
	C222.236603,154.801239 219.889481,158.868042 217.061340,163.699860 
	C219.908707,163.699860 221.533859,163.699860 223.158997,163.699860 
	C240.475372,163.699860 257.792511,163.783386 275.107483,163.627731 
	C278.472260,163.597473 280.425385,164.458908 282.124023,167.594284 
	C287.971375,178.387497 294.307159,188.914902 300.272125,199.646255 
	C302.606171,203.845398 305.530853,205.748596 310.612488,205.625198 
	C325.089783,205.273636 339.581146,205.501663 354.967072,205.501099 
M287.708710,87.144844 
	C293.072784,86.244499 295.678009,82.601128 296.506775,77.666008 
	C297.293091,72.983597 295.583679,68.281425 291.354706,66.789841 
	C285.745728,64.811501 283.661713,60.428146 281.044586,56.139141 
	C277.317413,50.031048 273.705383,43.852833 270.022491,37.717575 
	C266.395142,31.674751 262.236328,31.319036 258.175354,37.089901 
	C255.120850,41.430515 252.602112,46.155815 249.947083,50.768700 
	C222.821579,97.897247 195.667313,145.009506 168.722672,192.241302 
	C166.994385,195.270828 165.404968,199.939713 166.589142,202.566574 
	C167.501923,204.591446 172.865051,205.364304 176.261139,205.395050 
	C201.088623,205.619751 225.919327,205.467194 250.748077,205.604980 
	C252.842438,205.616608 255.347275,206.364029 256.943848,207.656219 
	C262.151367,211.870941 268.829834,212.199783 273.211731,207.967590 
	C277.488342,203.837036 277.797394,196.558456 273.884277,192.126160 
	C269.777100,187.474060 263.252533,187.151230 257.667847,190.993622 
	C256.041565,192.112564 253.848541,192.953217 251.903915,192.976608 
	C238.074722,193.143036 224.242584,193.064102 210.411377,193.063629 
	C201.530807,193.063339 192.650238,193.063583 183.033554,193.063583 
	C210.165405,145.552322 236.792572,98.924782 263.771667,51.680992 
	C266.958130,57.112709 269.966339,61.706066 272.381348,66.592575 
	C273.514404,68.885178 274.140747,71.806091 273.889465,74.332130 
	C273.212036,81.142586 278.639557,88.702347 287.708710,87.144844 
M175.931625,144.462479 
	C178.574356,139.851852 181.214767,135.239899 183.860153,130.630814 
	C197.668488,106.572365 211.449020,82.497826 225.356155,58.496628 
	C226.231705,56.985565 227.911179,55.485573 229.537506,54.944080 
	C236.093170,52.761330 239.446808,47.682888 238.091263,41.296444 
	C236.803116,35.227623 231.483841,31.699949 225.037338,32.639294 
	C219.069092,33.508945 215.479294,38.662159 215.610077,45.317184 
	C215.661896,47.953007 215.202240,50.967121 213.921646,53.206322 
	C190.009674,95.017723 165.972488,136.757797 141.796982,178.417328 
	C140.646744,180.399414 138.191864,182.099243 135.973022,182.896362 
	C129.598511,185.186462 126.570854,190.418549 128.117203,197.561432 
	C129.207397,202.597336 134.907532,206.200394 140.434708,205.347351 
	C146.692505,204.381516 150.452896,199.508499 150.271637,193.060959 
	C150.214462,191.027161 150.462830,188.685028 151.431290,186.969437 
	C159.350372,172.940979 167.473007,159.027420 175.931625,144.462479 
M79.882072,275.500977 
	C79.882072,269.715179 79.882072,263.929413 79.882072,257.906921 
	C82.165764,257.906921 83.890060,257.906921 86.260445,257.906921 
	C86.260445,271.416077 86.260445,284.625793 86.260445,297.771118 
	C90.024094,297.771118 93.138107,297.771118 96.926620,297.771118 
	C96.926620,284.319824 96.926620,271.104675 96.926620,257.535736 
	C99.360611,257.694550 101.087708,257.807220 103.272652,257.949768 
	C103.272652,271.556519 103.272652,284.639313 103.272652,297.643921 
	C107.003357,297.643921 110.229477,297.643921 113.725449,297.643921 
	C113.725449,284.457489 113.900261,271.642975 113.650711,258.836761 
	C113.528397,252.560471 110.430809,249.819702 104.013153,250.076019 
	C100.155106,250.230118 96.338463,251.361023 92.495445,252.006714 
	C91.809570,252.121948 91.071281,252.100479 90.381706,251.989639 
	C86.371124,251.345093 82.384232,250.238129 78.358208,250.080048 
	C72.622971,249.854874 69.673653,252.649124 69.296555,258.404449 
	C68.959389,263.550293 69.135162,268.731049 69.122887,273.896515 
	C69.104019,281.835968 69.117920,289.775513 69.117920,297.710144 
	C73.014931,297.710144 76.260460,297.710144 79.882057,297.710144 
	C79.882057,290.437103 79.882057,283.468719 79.882072,275.500977 
M309.261932,259.952972 
	C309.261932,272.554565 309.261932,285.156158 309.261932,297.617859 
	C313.187256,297.617859 316.415802,297.617859 320.076294,297.617859 
	C320.076294,292.305328 320.076294,287.380219 320.076294,282.544373 
	C322.572754,282.544373 324.611206,282.544373 327.095215,282.544373 
	C327.095215,287.867462 327.095215,292.787537 327.095215,297.849304 
	C330.676056,297.849304 333.801575,297.849304 337.250519,297.849304 
	C337.250519,284.261810 337.471222,270.807007 337.135468,257.366119 
	C337.011444,252.400833 333.890198,250.172729 328.779358,250.009232 
	C325.783752,249.913437 322.782593,249.977448 319.784027,249.991730 
	C312.446899,250.026672 310.579071,251.644867 309.261932,259.952972 
M149.501373,282.134918 
	C151.933838,281.828491 153.194794,282.555298 153.059891,285.352539 
	C152.862305,289.449554 153.009033,293.563202 153.009033,297.700958 
	C156.866516,297.700958 160.099548,297.700958 163.665421,297.700958 
	C163.665421,284.436890 163.887512,271.473053 163.567123,258.522675 
	C163.417938,252.492905 160.259995,250.081390 154.132797,249.999374 
	C150.635773,249.952560 147.132523,249.882767 143.641068,250.032715 
	C139.265503,250.220673 135.981628,252.447861 135.891403,256.913940 
	C135.616699,270.511292 135.791809,284.117737 135.791809,297.611206 
	C139.345093,297.611206 142.572372,297.611206 145.991440,297.611206 
	C145.991440,293.225586 145.807159,289.223846 146.110962,285.259521 
	C146.195084,284.162018 147.730057,283.175720 149.501373,282.134918 
M236.534851,298.594696 
	C240.587112,297.489777 242.802917,294.735474 242.855865,290.642975 
	C242.995834,279.824219 243.108780,268.998138 242.849762,258.184143 
	C242.719574,252.748856 239.599243,250.154907 234.137741,250.006348 
	C230.810425,249.915817 227.477798,249.939941 224.149078,249.999100 
	C217.871826,250.110641 215.021408,252.824387 214.940323,259.195984 
	C214.811081,269.350159 214.809677,279.508362 214.940735,289.662476 
	C215.020828,295.869263 217.948883,298.726135 224.233871,298.935394 
	C228.054108,299.062561 231.885422,298.857147 236.534851,298.594696 
M184.509659,294.735962 
	C188.599564,299.557465 203.318481,301.035614 207.936279,296.795380 
	C209.389542,295.460938 210.614197,293.146301 210.721909,291.212250 
	C211.070663,284.949371 210.852142,278.654877 210.852142,272.240906 
	C206.101471,272.240906 201.730865,272.240906 197.026978,272.240906 
	C197.194763,274.594879 196.806992,278.001648 197.556824,278.273804 
	C203.504303,280.432312 200.178146,285.216858 200.704346,288.743774 
	C200.832657,289.603851 198.482513,291.787292 197.585526,291.625336 
	C196.207870,291.376587 194.108459,289.677460 194.045380,288.501007 
	C193.698013,282.021454 193.875961,275.513672 193.874542,269.015594 
	C193.873703,265.099579 193.874390,261.183533 193.874390,257.412994 
	C196.663727,257.412994 198.561005,257.412994 200.629608,257.412994 
	C200.809235,259.730927 200.959656,261.672119 201.129852,263.868286 
	C204.362411,263.868286 207.433624,263.868286 210.469940,263.868286 
	C212.001968,253.331757 209.236023,249.990829 199.212082,249.985092 
	C196.712830,249.983658 194.211914,249.932877 191.714706,250.006027 
	C187.329147,250.134476 183.832123,252.247589 183.760620,256.662292 
	C183.559067,269.107147 183.982910,281.562164 184.509659,294.735962 
M265.733673,293.399811 
	C265.833344,294.829895 265.933014,296.259979 266.036713,297.747681 
	C269.483398,297.747681 272.564362,297.747681 276.003754,297.747681 
	C276.003754,284.065796 276.170258,270.634003 275.908142,257.210602 
	C275.823151,252.856781 272.838318,250.273666 268.400024,250.059891 
	C264.417694,249.868057 260.407471,249.838104 256.429993,250.077057 
	C252.281631,250.326294 249.200058,252.713455 249.115204,256.869507 
	C248.838150,270.437256 249.011337,284.014191 249.011337,297.676758 
	C252.539612,297.676758 255.762512,297.676758 259.432983,297.676758 
	C259.432983,284.275818 259.432983,271.197174 259.432983,257.847534 
	C261.629822,257.847534 263.373718,257.847534 265.733490,257.847534 
	C265.733490,269.553955 265.733490,280.984894 265.733673,293.399811 
M394.517395,262.706116 
	C394.518524,264.705811 394.474182,266.706726 394.528870,268.704956 
	C394.731506,276.112183 397.501862,278.829956 404.968658,278.965942 
	C406.923523,279.001556 408.879547,278.971313 411.504944,278.971313 
	C411.504944,282.228333 411.427643,285.005127 411.526642,287.775635 
	C411.625763,290.549774 410.111115,291.011230 407.744049,291.031799 
	C402.359314,291.078552 405.704529,286.298676 403.694855,284.211487 
	C400.980957,284.211487 398.038605,284.211487 394.535614,284.211487 
	C394.535614,286.178101 394.485748,287.968567 394.545258,289.755402 
	C394.700775,294.424591 396.595276,298.211304 401.542389,298.640289 
	C411.194550,299.477203 417.983276,299.830261 420.362396,294.575745 
	C421.029602,293.102051 421.354218,291.374054 421.418091,289.746307 
	C421.568237,285.919464 421.607697,282.076355 421.434052,278.251495 
	C421.153870,272.078644 418.241516,269.371796 411.904419,269.164246 
	C409.632782,269.089813 407.356659,269.152313 404.909912,269.152313 
	C404.909912,265.125092 404.909912,261.754303 404.909912,258.361450 
	C407.071838,258.361450 408.801605,258.361450 410.621277,258.361450 
	C410.920990,260.084351 411.164154,261.482300 411.404846,262.865967 
	C414.662109,262.865967 417.596130,262.865967 420.486176,262.865967 
	C421.805084,253.192795 419.080444,250.007675 409.734406,249.993271 
	C408.567902,249.991470 407.401398,249.992325 406.234894,249.993195 
	C396.756042,250.000259 394.710297,252.063751 394.517395,262.706116 
M390.073425,296.390808 
	C390.073425,294.260803 390.073425,292.130798 390.073425,289.483215 
	C386.249725,289.483215 382.822937,289.483215 379.274780,289.483215 
	C379.274780,285.434265 379.274780,281.913208 379.274780,278.036865 
	C382.777100,278.036865 385.882751,278.036865 389.223450,278.036865 
	C389.223450,275.258698 389.223450,272.845062 389.223450,269.945618 
	C385.714630,269.945618 382.476837,269.945618 379.203430,269.945618 
	C379.203430,266.069641 379.203430,262.687683 379.203430,258.870239 
	C382.942017,258.870239 386.361542,258.870239 389.789032,258.870239 
	C389.789032,256.020447 389.789032,253.624649 389.789032,251.139526 
	C382.567169,251.139526 375.664673,251.139526 368.524780,251.139526 
	C368.524780,266.797180 368.524780,282.173981 368.524780,298.305634 
	C375.852966,297.965912 382.887787,297.639771 390.073425,296.390808 
M301.339783,250.861267 
	C294.583282,250.861267 287.826813,250.861267 281.035431,250.861267 
	C281.035431,253.717178 281.035431,255.956070 281.035431,258.808105 
	C285.380615,258.808105 289.406342,258.808105 294.127045,258.808105 
	C289.725128,269.197327 285.541840,278.751892 281.662140,288.428131 
	C280.548096,291.206635 280.310486,294.336548 279.575562,297.748535 
	C288.602814,297.748535 296.657990,297.748535 304.670502,297.748535 
	C304.670502,295.102997 304.670502,292.751953 304.670502,289.941406 
	C300.190033,289.941406 296.135132,289.941406 291.398315,289.941406 
	C295.630676,280.006256 299.699799,270.769562 303.463806,261.410126 
	C304.481171,258.880493 304.796478,255.991196 304.944885,253.240585 
	C304.984924,252.498444 303.231964,251.659576 301.339783,250.861267 
M353.882965,279.470398 
	C353.882965,270.035614 353.882965,260.600830 353.882965,251.261993 
	C349.987671,251.261993 346.767212,251.261993 343.652130,251.261993 
	C343.652130,267.049805 343.652130,282.424347 343.652130,297.652710 
	C350.982880,297.652710 357.898499,297.652710 364.648743,297.652710 
	C364.648743,294.692352 364.648743,292.107300 364.648743,288.971466 
	C360.910950,288.971466 357.515961,288.971466 353.882965,288.971466 
	C353.882965,285.755341 353.882965,283.108368 353.882965,279.470398 
M118.911385,287.476685 
	C118.911385,290.897430 118.911385,294.318146 118.911385,297.730469 
	C122.684052,297.730469 125.768532,297.730469 129.000641,297.730469 
	C129.000641,282.095154 129.000641,266.733826 129.000641,251.256027 
	C125.538116,251.256027 122.349304,251.256027 118.911377,251.256027 
	C118.911377,263.250549 118.911377,274.866119 118.911385,287.476685 
M293.336273,353.725769 
	C293.336273,345.976746 293.336273,338.227692 293.336273,330.229675 
	C289.596710,330.229675 285.832428,330.229675 281.823303,330.229675 
	C281.823303,338.063507 281.823303,345.842499 281.823303,353.621521 
	C282.168915,353.959503 282.514557,354.297485 282.860168,354.635468 
	C284.353455,353.272034 285.846741,351.908600 286.657257,351.168579 
	C288.541046,352.078888 290.516724,353.033600 293.336273,353.725769 
M245.069672,344.092957 
	C245.069672,347.334167 245.069672,350.575378 245.069672,354.098694 
	C247.308578,353.950073 248.725464,353.856049 250.423126,353.743378 
	C250.423126,351.139252 250.472916,348.829437 250.408676,346.522736 
	C250.348190,344.350189 249.617783,342.038422 250.137039,340.035492 
	C252.145554,332.288025 250.516724,329.910675 242.643921,329.987640 
	C241.383881,329.999939 240.125381,330.169312 238.871887,330.265656 
	C238.871887,338.311676 238.871887,346.026917 238.871887,353.821350 
	C240.606766,353.821350 242.044662,353.821350 243.535156,353.821350 
	C243.869308,350.236267 244.185562,346.843048 245.069672,344.092957 
M259.571655,346.911163 
	C259.714417,351.304840 261.225037,354.432343 266.358154,354.014099 
	C271.340302,353.608185 271.842041,350.029907 271.827362,346.117798 
	C271.814911,342.795685 271.856628,339.473053 271.812347,336.151489 
	C271.759613,332.198303 269.980713,329.993439 265.760895,329.938354 
	C261.487488,329.882629 259.745148,332.187683 259.608093,336.070190 
	C259.490936,339.388275 259.572632,342.713440 259.571655,346.911163 
M324.587280,338.076355 
	C326.116028,338.785370 327.644745,339.494385 329.592957,340.397980 
	C329.732117,338.411133 329.787750,337.754059 329.822662,337.095886 
	C330.035767,333.079071 328.791565,330.212494 324.206421,329.970459 
	C319.819000,329.738922 317.903595,331.568939 317.639587,336.729828 
	C317.444611,340.541199 317.451691,344.377869 317.639587,348.189911 
	C317.851135,352.482513 320.336578,354.387970 324.599091,354.021759 
	C329.093414,353.635651 330.300110,351.183105 329.387543,344.129089 
	C327.845490,344.129089 326.293976,344.129089 324.805389,344.129089 
	C324.536499,346.199249 324.314728,347.906555 324.092987,349.613861 
	C323.810150,349.552216 323.527344,349.490601 323.244507,349.428955 
	C323.244507,344.495270 323.244507,339.561554 323.244507,334.627869 
	C323.517212,334.605316 323.789917,334.582764 324.062622,334.560211 
	C324.229431,335.460541 324.396210,336.360870 324.587280,338.076355 
M344.514465,329.969482 
	C342.763550,330.950439 340.159821,331.505341 339.417938,332.990387 
	C336.965912,337.898621 340.594727,341.266571 343.818939,344.708038 
	C341.822266,344.954163 340.282562,345.143951 338.536316,345.359192 
	C338.848907,349.359894 338.369629,353.562103 343.545532,353.867737 
	C345.551605,353.986206 349.164490,352.897308 349.414703,351.772980 
	C350.108612,348.654907 349.837006,345.133484 349.111053,341.962860 
	C348.714142,340.229340 346.624451,338.883453 345.153137,337.196564 
	C347.242340,336.989563 348.837585,336.831512 350.551575,336.661713 
	C350.529541,332.764954 349.350983,330.227325 344.514465,329.969482 
M188.601791,333.297363 
	C187.181839,326.297821 182.053665,331.851654 178.827820,329.419037 
	C178.827820,338.204773 178.827820,345.953552 178.827820,353.677551 
	C182.311035,353.677551 185.549469,353.677551 188.706879,353.677551 
	C188.706879,352.054108 188.706879,350.767883 188.706879,349.343719 
	C187.013733,349.059570 185.478317,348.801910 184.102753,348.571075 
	C184.102753,346.946198 184.102753,345.655609 184.102753,344.375854 
	C185.644302,344.050018 187.003021,343.762848 187.904861,343.572235 
	C189.745789,339.097351 187.022034,338.737762 184.382614,338.865875 
	C182.067062,333.494965 187.506058,336.022430 188.601791,333.297363 
M148.185120,343.993530 
	C148.802231,342.581451 149.419342,341.169403 149.770020,340.366943 
	C147.649643,338.915131 146.362610,338.033905 145.075592,337.152679 
	C146.548187,336.068604 148.020798,334.984528 149.542908,333.864014 
	C149.542908,332.897430 149.542908,331.632507 149.542908,330.296021 
	C146.212418,330.296021 143.143585,330.296021 140.164368,330.296021 
	C140.164368,338.338715 140.164368,346.064758 140.164368,353.739624 
	C143.626282,353.739624 146.727890,353.739624 150.101212,353.739624 
	C149.980240,352.029541 149.880188,350.615051 149.785645,349.278503 
	C148.013443,349.004211 146.587997,348.783569 143.784485,348.349640 
	C145.363831,346.430511 146.357346,345.223236 148.185120,343.993530 
M226.689255,341.600220 
	C227.569183,337.863983 228.449097,334.127747 229.351089,330.297729 
	C225.534210,330.297729 222.145309,330.297729 218.632721,330.297729 
	C218.632721,331.793915 218.230225,333.734161 218.695511,333.971222 
	C222.939697,336.133667 221.015564,339.927795 221.260834,343.057465 
	C221.507538,346.205383 221.329651,349.385315 221.395523,352.550049 
	C221.404510,352.981018 221.748169,353.404999 222.032608,354.048981 
	C223.476654,353.965637 224.901764,353.883392 226.689255,353.780212 
	C226.689255,349.846558 226.689255,346.203644 226.689255,341.600220 
M164.689285,338.565735 
	C164.689285,335.790619 164.689285,333.015533 164.689285,329.872955 
	C162.498306,330.027100 160.941986,330.136627 159.518524,330.236786 
	C159.518524,338.408142 159.518524,346.129456 159.518524,353.753540 
	C162.993500,353.753540 166.090881,353.753540 169.188263,353.753540 
	C169.441132,353.273834 169.694000,352.794128 169.946854,352.314392 
	C168.279663,351.139435 166.612457,349.964478 164.689255,348.609100 
	C164.689255,345.862732 164.689255,342.701630 164.689285,338.565735 
M308.199554,334.634216 
	C308.121399,333.187500 308.043274,331.740784 307.962952,330.253937 
	C306.250580,330.253937 304.852997,330.253937 303.362335,330.253937 
	C303.362335,338.255829 303.362335,345.982727 303.362335,353.742828 
	C305.044159,353.742828 306.447052,353.742828 308.199585,353.742828 
	C308.199585,347.517151 308.199585,341.562042 308.199554,334.634216 
z"/>
<path fill="#D7D8D8" opacity="1.000000" stroke="none" 
	d="
M354.517029,205.501358 
	C339.581146,205.501663 325.089783,205.273636 310.612488,205.625198 
	C305.530853,205.748596 302.606171,203.845398 300.272125,199.646255 
	C294.307159,188.914902 287.971375,178.387497 282.124023,167.594284 
	C280.425385,164.458908 278.472260,163.597473 275.107483,163.627731 
	C257.792511,163.783386 240.475372,163.699860 223.158997,163.699860 
	C221.533859,163.699860 219.908707,163.699860 217.061340,163.699860 
	C219.889481,158.868042 222.236603,154.801239 224.637558,150.766434 
	C232.618546,137.354355 240.559921,123.917747 248.698502,110.601776 
	C249.560089,109.192062 251.617142,107.643837 253.128937,107.634239 
	C269.425476,107.530762 285.723816,107.781693 302.021820,107.799042 
	C306.877777,107.804214 310.050934,109.944298 312.493042,114.049507 
	C328.539764,141.024414 344.741180,167.907318 360.782349,194.885498 
	C364.481689,201.107056 362.317780,204.801422 354.517029,205.501358 
z"/>
<path fill="#49C5ED" opacity="1.000000" stroke="none" 
	d="
M287.336609,87.241402 
	C278.639557,88.702347 273.212036,81.142586 273.889465,74.332130 
	C274.140747,71.806091 273.514404,68.885178 272.381348,66.592575 
	C269.966339,61.706066 266.958130,57.112709 263.771667,51.680992 
	C236.792572,98.924782 210.165405,145.552322 183.033554,193.063583 
	C192.650238,193.063583 201.530807,193.063339 210.411377,193.063629 
	C224.242584,193.064102 238.074722,193.143036 251.903915,192.976608 
	C253.848541,192.953217 256.041565,192.112564 257.667847,190.993622 
	C263.252533,187.151230 269.777100,187.474060 273.884277,192.126160 
	C277.797394,196.558456 277.488342,203.837036 273.211731,207.967590 
	C268.829834,212.199783 262.151367,211.870941 256.943848,207.656219 
	C255.347275,206.364029 252.842438,205.616608 250.748077,205.604980 
	C225.919327,205.467194 201.088623,205.619751 176.261139,205.395050 
	C172.865051,205.364304 167.501923,204.591446 166.589142,202.566574 
	C165.404968,199.939713 166.994385,195.270828 168.722672,192.241302 
	C195.667313,145.009506 222.821579,97.897247 249.947083,50.768700 
	C252.602112,46.155815 255.120850,41.430515 258.175354,37.089901 
	C262.236328,31.319036 266.395142,31.674751 270.022491,37.717575 
	C273.705383,43.852833 277.317413,50.031048 281.044586,56.139141 
	C283.661713,60.428146 285.745728,64.811501 291.354706,66.789841 
	C295.583679,68.281425 297.293091,72.983597 296.506775,77.666008 
	C295.678009,82.601128 293.072784,86.244499 287.336609,87.241402 
M263.339661,195.972519 
	C260.761261,197.606445 260.014160,199.962448 262.002319,202.211258 
	C262.969971,203.305801 265.595337,204.154907 266.703979,203.595749 
	C268.089569,202.896896 269.545258,200.573914 269.439209,199.059326 
	C269.237671,196.181580 267.043549,194.895157 263.339661,195.972519 
M282.134552,79.121719 
	C284.378906,80.895515 286.921326,81.399773 288.519257,78.795403 
	C289.322083,77.486946 289.191406,74.821686 288.335541,73.530624 
	C287.665466,72.519852 284.985870,71.986969 283.629333,72.464340 
	C280.850067,73.442398 280.231720,75.813675 282.134552,79.121719 
z"/>
<path fill="#49C5ED" opacity="1.000000" stroke="none" 
	d="
M175.732697,144.770721 
	C167.473007,159.027420 159.350372,172.940979 151.431290,186.969437 
	C150.462830,188.685028 150.214462,191.027161 150.271637,193.060959 
	C150.452896,199.508499 146.692505,204.381516 140.434708,205.347351 
	C134.907532,206.200394 129.207397,202.597336 128.117203,197.561432 
	C126.570854,190.418549 129.598511,185.186462 135.973022,182.896362 
	C138.191864,182.099243 140.646744,180.399414 141.796982,178.417328 
	C165.972488,136.757797 190.009674,95.017723 213.921646,53.206322 
	C215.202240,50.967121 215.661896,47.953007 215.610077,45.317184 
	C215.479294,38.662159 219.069092,33.508945 225.037338,32.639294 
	C231.483841,31.699949 236.803116,35.227623 238.091263,41.296444 
	C239.446808,47.682888 236.093170,52.761330 229.537506,54.944080 
	C227.911179,55.485573 226.231705,56.985565 225.356155,58.496628 
	C211.449020,82.497826 197.668488,106.572365 183.860153,130.630814 
	C181.214767,135.239899 178.574356,139.851852 175.732697,144.770721 
M138.656967,198.559143 
	C141.542084,198.501907 143.804901,197.272202 143.302795,194.198212 
	C143.048630,192.642212 141.316788,190.664230 139.833023,190.189316 
	C138.712952,189.830811 136.311554,191.186462 135.564453,192.430283 
	C134.029510,194.985764 135.077850,197.195969 138.656967,198.559143 
M223.863327,46.476990 
	C225.765717,46.697823 227.921616,47.545010 229.479446,46.914501 
	C230.481766,46.508846 231.236130,43.792839 230.924362,42.370377 
	C230.670776,41.213337 228.789337,39.926521 227.415359,39.600246 
	C224.305023,38.861641 222.795517,41.356167 223.863327,46.476990 
z"/>
<path fill="#47BEE6" opacity="1.000000" stroke="none" 
	d="
M79.882065,276.000671 
	C79.882057,283.468719 79.882057,290.437103 79.882057,297.710144 
	C76.260460,297.710144 73.014931,297.710144 69.117920,297.710144 
	C69.117920,289.775513 69.104019,281.835968 69.122887,273.896515 
	C69.135162,268.731049 68.959389,263.550293 69.296555,258.404449 
	C69.673653,252.649124 72.622971,249.854874 78.358208,250.080048 
	C82.384232,250.238129 86.371124,251.345093 90.381706,251.989639 
	C91.071281,252.100479 91.809570,252.121948 92.495445,252.006714 
	C96.338463,251.361023 100.155106,250.230118 104.013153,250.076019 
	C110.430809,249.819702 113.528397,252.560471 113.650711,258.836761 
	C113.900261,271.642975 113.725449,284.457489 113.725449,297.643921 
	C110.229477,297.643921 107.003357,297.643921 103.272652,297.643921 
	C103.272652,284.639313 103.272652,271.556519 103.272652,257.949768 
	C101.087708,257.807220 99.360611,257.694550 96.926620,257.535736 
	C96.926620,271.104675 96.926620,284.319824 96.926620,297.771118 
	C93.138107,297.771118 90.024094,297.771118 86.260445,297.771118 
	C86.260445,284.625793 86.260445,271.416077 86.260445,257.906921 
	C83.890060,257.906921 82.165764,257.906921 79.882072,257.906921 
	C79.882072,263.929413 79.882072,269.715179 79.882065,276.000671 
z"/>
<path fill="#48C2EA" opacity="1.000000" stroke="none" 
	d="
M309.267853,259.509216 
	C310.579071,251.644867 312.446899,250.026672 319.784027,249.991730 
	C322.782593,249.977448 325.783752,249.913437 328.779358,250.009232 
	C333.890198,250.172729 337.011444,252.400833 337.135468,257.366119 
	C337.471222,270.807007 337.250519,284.261810 337.250519,297.849304 
	C333.801575,297.849304 330.676056,297.849304 327.095215,297.849304 
	C327.095215,292.787537 327.095215,287.867462 327.095215,282.544373 
	C324.611206,282.544373 322.572754,282.544373 320.076294,282.544373 
	C320.076294,287.380219 320.076294,292.305328 320.076294,297.617859 
	C316.415802,297.617859 313.187256,297.617859 309.261932,297.617859 
	C309.261932,285.156158 309.261932,272.554565 309.267853,259.509216 
M321.554504,274.018677 
	C323.168121,274.018677 324.781708,274.018677 326.586853,274.018677 
	C326.586853,268.222748 326.586853,262.866180 326.586853,257.415283 
	C324.233124,257.415283 322.221191,257.415283 319.517609,257.415283 
	C319.906006,263.205475 320.264740,268.553131 321.554504,274.018677 
z"/>
<path fill="#48C2EB" opacity="1.000000" stroke="none" 
	d="
M149.050369,282.136658 
	C147.730057,283.175720 146.195084,284.162018 146.110962,285.259521 
	C145.807159,289.223846 145.991440,293.225586 145.991440,297.611206 
	C142.572372,297.611206 139.345093,297.611206 135.791809,297.611206 
	C135.791809,284.117737 135.616699,270.511292 135.891403,256.913940 
	C135.981628,252.447861 139.265503,250.220673 143.641068,250.032715 
	C147.132523,249.882767 150.635773,249.952560 154.132797,249.999374 
	C160.259995,250.081390 163.417938,252.492905 163.567123,258.522675 
	C163.887512,271.473053 163.665421,284.436890 163.665421,297.700958 
	C160.099548,297.700958 156.866516,297.700958 153.009033,297.700958 
	C153.009033,293.563202 152.862305,289.449554 153.059891,285.352539 
	C153.194794,282.555298 151.933838,281.828491 149.050369,282.136658 
M145.967117,264.561523 
	C145.967117,267.639618 145.967117,270.717712 145.967117,273.659485 
	C148.702408,273.659485 150.746506,273.659485 152.576538,273.659485 
	C152.576538,267.924347 152.576538,262.579163 152.576538,257.377136 
	C150.221588,257.377136 148.328705,257.377136 145.967117,257.377136 
	C145.967117,259.697632 145.967117,261.651886 145.967117,264.561523 
z"/>
<path fill="#48C2E9" opacity="1.000000" stroke="none" 
	d="
M236.123306,298.697937 
	C231.885422,298.857147 228.054108,299.062561 224.233871,298.935394 
	C217.948883,298.726135 215.020828,295.869263 214.940735,289.662476 
	C214.809677,279.508362 214.811081,269.350159 214.940323,259.195984 
	C215.021408,252.824387 217.871826,250.110641 224.149078,249.999100 
	C227.477798,249.939941 230.810425,249.915817 234.137741,250.006348 
	C239.599243,250.154907 242.719574,252.748856 242.849762,258.184143 
	C243.108780,268.998138 242.995834,279.824219 242.855865,290.642975 
	C242.802917,294.735474 240.587112,297.489777 236.123306,298.697937 
M225.236649,280.452637 
	C225.239700,283.107086 224.846130,285.849243 225.405716,288.380676 
	C225.705582,289.737274 227.464157,291.320679 228.885712,291.758331 
	C231.352005,292.517639 232.385773,290.945740 232.322968,288.409332 
	C232.212112,283.932709 232.295013,279.451263 232.295532,274.971863 
	C232.296219,269.063354 232.295685,263.154846 232.295685,257.337952 
	C229.597351,257.337952 227.706528,257.337952 225.236725,257.337952 
	C225.236725,264.936401 225.236725,272.200775 225.236649,280.452637 
z"/>
<path fill="#47C1E8" opacity="1.000000" stroke="none" 
	d="
M184.334961,294.374573 
	C183.982910,281.562164 183.559067,269.107147 183.760620,256.662292 
	C183.832123,252.247589 187.329147,250.134476 191.714706,250.006027 
	C194.211914,249.932877 196.712830,249.983658 199.212082,249.985092 
	C209.236023,249.990829 212.001968,253.331757 210.469940,263.868286 
	C207.433624,263.868286 204.362411,263.868286 201.129852,263.868286 
	C200.959656,261.672119 200.809235,259.730927 200.629608,257.412994 
	C198.561005,257.412994 196.663727,257.412994 193.874390,257.412994 
	C193.874390,261.183533 193.873703,265.099579 193.874542,269.015594 
	C193.875961,275.513672 193.698013,282.021454 194.045380,288.501007 
	C194.108459,289.677460 196.207870,291.376587 197.585526,291.625336 
	C198.482513,291.787292 200.832657,289.603851 200.704346,288.743774 
	C200.178146,285.216858 203.504303,280.432312 197.556824,278.273804 
	C196.806992,278.001648 197.194763,274.594879 197.026978,272.240906 
	C201.730865,272.240906 206.101471,272.240906 210.852142,272.240906 
	C210.852142,278.654877 211.070663,284.949371 210.721909,291.212250 
	C210.614197,293.146301 209.389542,295.460938 207.936279,296.795380 
	C203.318481,301.035614 188.599564,299.557465 184.334961,294.374573 
z"/>
<path fill="#49C5ED" opacity="1.000000" stroke="none" 
	d="
M265.733582,292.907837 
	C265.733490,280.984894 265.733490,269.553955 265.733490,257.847534 
	C263.373718,257.847534 261.629822,257.847534 259.432983,257.847534 
	C259.432983,271.197174 259.432983,284.275818 259.432983,297.676758 
	C255.762512,297.676758 252.539612,297.676758 249.011337,297.676758 
	C249.011337,284.014191 248.838150,270.437256 249.115204,256.869507 
	C249.200058,252.713455 252.281631,250.326294 256.429993,250.077057 
	C260.407471,249.838104 264.417694,249.868057 268.400024,250.059891 
	C272.838318,250.273666 275.823151,252.856781 275.908142,257.210602 
	C276.170258,270.634003 276.003754,284.065796 276.003754,297.747681 
	C272.564362,297.747681 269.483398,297.747681 266.036713,297.747681 
	C265.933014,296.259979 265.833344,294.829895 265.733582,292.907837 
z"/>
<path fill="#49C4EC" opacity="1.000000" stroke="none" 
	d="
M394.517578,262.258698 
	C394.710297,252.063751 396.756042,250.000259 406.234894,249.993195 
	C407.401398,249.992325 408.567902,249.991470 409.734406,249.993271 
	C419.080444,250.007675 421.805084,253.192795 420.486176,262.865967 
	C417.596130,262.865967 414.662109,262.865967 411.404846,262.865967 
	C411.164154,261.482300 410.920990,260.084351 410.621277,258.361450 
	C408.801605,258.361450 407.071838,258.361450 404.909912,258.361450 
	C404.909912,261.754303 404.909912,265.125092 404.909912,269.152313 
	C407.356659,269.152313 409.632782,269.089813 411.904419,269.164246 
	C418.241516,269.371796 421.153870,272.078644 421.434052,278.251495 
	C421.607697,282.076355 421.568237,285.919464 421.418091,289.746307 
	C421.354218,291.374054 421.029602,293.102051 420.362396,294.575745 
	C417.983276,299.830261 411.194550,299.477203 401.542389,298.640289 
	C396.595276,298.211304 394.700775,294.424591 394.545258,289.755402 
	C394.485748,287.968567 394.535614,286.178101 394.535614,284.211487 
	C398.038605,284.211487 400.980957,284.211487 403.694855,284.211487 
	C405.704529,286.298676 402.359314,291.078552 407.744049,291.031799 
	C410.111115,291.011230 411.625763,290.549774 411.526642,287.775635 
	C411.427643,285.005127 411.504944,282.228333 411.504944,278.971313 
	C408.879547,278.971313 406.923523,279.001556 404.968658,278.965942 
	C397.501862,278.829956 394.731506,276.112183 394.528870,268.704956 
	C394.474182,266.706726 394.518524,264.705811 394.517578,262.258698 
z"/>
<path fill="#47C0E8" opacity="1.000000" stroke="none" 
	d="
M389.998047,296.852234 
	C382.887787,297.639771 375.852966,297.965912 368.524780,298.305634 
	C368.524780,282.173981 368.524780,266.797180 368.524780,251.139526 
	C375.664673,251.139526 382.567169,251.139526 389.789032,251.139526 
	C389.789032,253.624649 389.789032,256.020447 389.789032,258.870239 
	C386.361542,258.870239 382.942017,258.870239 379.203430,258.870239 
	C379.203430,262.687683 379.203430,266.069641 379.203430,269.945618 
	C382.476837,269.945618 385.714630,269.945618 389.223450,269.945618 
	C389.223450,272.845062 389.223450,275.258698 389.223450,278.036865 
	C385.882751,278.036865 382.777100,278.036865 379.274780,278.036865 
	C379.274780,281.913208 379.274780,285.434265 379.274780,289.483215 
	C382.822937,289.483215 386.249725,289.483215 390.073425,289.483215 
	C390.073425,292.130798 390.073425,294.260803 389.998047,296.852234 
z"/>
<path fill="#47C1E8" opacity="1.000000" stroke="none" 
	d="
M301.820892,250.863190 
	C303.231964,251.659576 304.984924,252.498444 304.944885,253.240585 
	C304.796478,255.991196 304.481171,258.880493 303.463806,261.410126 
	C299.699799,270.769562 295.630676,280.006256 291.398315,289.941406 
	C296.135132,289.941406 300.190033,289.941406 304.670502,289.941406 
	C304.670502,292.751953 304.670502,295.102997 304.670502,297.748535 
	C296.657990,297.748535 288.602814,297.748535 279.575562,297.748535 
	C280.310486,294.336548 280.548096,291.206635 281.662140,288.428131 
	C285.541840,278.751892 289.725128,269.197327 294.127045,258.808105 
	C289.406342,258.808105 285.380615,258.808105 281.035431,258.808105 
	C281.035431,255.956070 281.035431,253.717178 281.035431,250.861267 
	C287.826813,250.861267 294.583282,250.861267 301.820892,250.863190 
z"/>
<path fill="#46BEE5" opacity="1.000000" stroke="none" 
	d="
M353.882965,279.965881 
	C353.882965,283.108368 353.882965,285.755341 353.882965,288.971466 
	C357.515961,288.971466 360.910950,288.971466 364.648743,288.971466 
	C364.648743,292.107300 364.648743,294.692352 364.648743,297.652710 
	C357.898499,297.652710 350.982880,297.652710 343.652130,297.652710 
	C343.652130,282.424347 343.652130,267.049805 343.652130,251.261993 
	C346.767212,251.261993 349.987671,251.261993 353.882965,251.261993 
	C353.882965,260.600830 353.882965,270.035614 353.882965,279.965881 
z"/>
<path fill="#49C5EE" opacity="1.000000" stroke="none" 
	d="
M118.911377,286.979187 
	C118.911377,274.866119 118.911377,263.250549 118.911377,251.256027 
	C122.349304,251.256027 125.538116,251.256027 129.000641,251.256027 
	C129.000641,266.733826 129.000641,282.095154 129.000641,297.730469 
	C125.768532,297.730469 122.684052,297.730469 118.911385,297.730469 
	C118.911385,294.318146 118.911385,290.897430 118.911377,286.979187 
z"/>
<path fill="#CFD0D0" opacity="1.000000" stroke="none" 
	d="
M292.914337,353.857056 
	C290.516724,353.033600 288.541046,352.078888 286.657257,351.168579 
	C285.846741,351.908600 284.353455,353.272034 282.860168,354.635468 
	C282.514557,354.297485 282.168915,353.959503 281.823303,353.621521 
	C281.823303,345.842499 281.823303,338.063507 281.823303,330.229675 
	C285.832428,330.229675 289.596710,330.229675 293.336273,330.229675 
	C293.336273,338.227692 293.336273,345.976746 292.914337,353.857056 
z"/>
<path fill="#CECFCF" opacity="1.000000" stroke="none" 
	d="
M244.785736,343.771393 
	C244.185562,346.843048 243.869308,350.236267 243.535156,353.821350 
	C242.044662,353.821350 240.606766,353.821350 238.871887,353.821350 
	C238.871887,346.026917 238.871887,338.311676 238.871887,330.265656 
	C240.125381,330.169312 241.383881,329.999939 242.643921,329.987640 
	C250.516724,329.910675 252.145554,332.288025 250.137039,340.035492 
	C249.617783,342.038422 250.348190,344.350189 250.408676,346.522736 
	C250.472916,348.829437 250.423126,351.139252 250.423126,353.743378 
	C248.725464,353.856049 247.308578,353.950073 245.069672,354.098694 
	C245.069672,350.575378 245.069672,347.334167 244.785736,343.771393 
z"/>
<path fill="#CBCCCD" opacity="1.000000" stroke="none" 
	d="
M259.569031,346.473328 
	C259.572632,342.713440 259.490936,339.388275 259.608093,336.070190 
	C259.745148,332.187683 261.487488,329.882629 265.760895,329.938354 
	C269.980713,329.993439 271.759613,332.198303 271.812347,336.151489 
	C271.856628,339.473053 271.814911,342.795685 271.827362,346.117798 
	C271.842041,350.029907 271.340302,353.608185 266.358154,354.014099 
	C261.225037,354.432343 259.714417,351.304840 259.569031,346.473328 
M266.766876,345.198303 
	C266.766876,341.605469 266.766876,338.012634 266.766876,334.419830 
	C266.239502,334.444489 265.712097,334.469147 265.184723,334.493805 
	C265.184723,339.527802 265.184723,344.561798 265.184723,349.595795 
	C265.514496,349.630646 265.844299,349.665527 266.174072,349.700378 
	C266.371002,348.498383 266.567932,347.296417 266.766876,345.198303 
z"/>
<path fill="#CACBCC" opacity="1.000000" stroke="none" 
	d="
M324.575134,337.668762 
	C324.396210,336.360870 324.229431,335.460541 324.062622,334.560211 
	C323.789917,334.582764 323.517212,334.605316 323.244507,334.627869 
	C323.244507,339.561554 323.244507,344.495270 323.244507,349.428955 
	C323.527344,349.490601 323.810150,349.552216 324.092987,349.613861 
	C324.314728,347.906555 324.536499,346.199249 324.805389,344.129089 
	C326.293976,344.129089 327.845490,344.129089 329.387543,344.129089 
	C330.300110,351.183105 329.093414,353.635651 324.599091,354.021759 
	C320.336578,354.387970 317.851135,352.482513 317.639587,348.189911 
	C317.451691,344.377869 317.444611,340.541199 317.639587,336.729828 
	C317.903595,331.568939 319.819000,329.738922 324.206421,329.970459 
	C328.791565,330.212494 330.035767,333.079071 329.822662,337.095886 
	C329.787750,337.754059 329.732117,338.411133 329.592957,340.397980 
	C327.644745,339.494385 326.116028,338.785370 324.575134,337.668762 
z"/>
<path fill="#CACBCC" opacity="1.000000" stroke="none" 
	d="
M344.912903,329.971008 
	C349.350983,330.227325 350.529541,332.764954 350.551575,336.661713 
	C348.837585,336.831512 347.242340,336.989563 345.153137,337.196564 
	C346.624451,338.883453 348.714142,340.229340 349.111053,341.962860 
	C349.837006,345.133484 350.108612,348.654907 349.414703,351.772980 
	C349.164490,352.897308 345.551605,353.986206 343.545532,353.867737 
	C338.369629,353.562103 338.848907,349.359894 338.536316,345.359192 
	C340.282562,345.143951 341.822266,344.954163 343.818939,344.708038 
	C340.594727,341.266571 336.965912,337.898621 339.417938,332.990387 
	C340.159821,331.505341 342.763550,330.950439 344.912903,329.971008 
z"/>
<path fill="#CECFCF" opacity="1.000000" stroke="none" 
	d="
M203.193344,340.056274 
	C203.158249,341.094299 203.123154,342.132355 203.028641,343.963074 
	C203.140656,346.435028 203.312088,348.114258 203.483521,349.793488 
	C204.019318,349.751190 204.555130,349.708923 205.090927,349.666626 
	C205.090927,347.795074 205.090927,345.923553 205.090927,344.052002 
	C206.554504,343.952576 208.018082,343.853119 209.447540,343.756012 
	C210.892548,351.406616 209.213364,354.240814 203.672272,354.038879 
	C200.297195,353.915894 198.276230,352.145294 198.087097,348.941071 
	C197.824493,344.492249 197.813889,339.998505 198.126266,335.554260 
	C198.439865,331.092621 201.350845,329.173920 205.685272,330.043365 
	C209.212128,330.750854 211.306030,334.384857 209.895966,338.168884 
	C209.557144,339.078094 207.422348,339.318085 205.650665,339.444092 
	C204.994797,337.447266 204.801758,335.872223 204.608719,334.297180 
	C204.136917,334.352997 203.665131,334.408783 203.193344,334.464600 
	C203.193344,336.328491 203.193344,338.192383 203.193344,340.056274 
z"/>
<path fill="#D3D3D3" opacity="1.000000" stroke="none" 
	d="
M188.555618,333.715576 
	C187.506058,336.022430 182.067062,333.494965 184.382614,338.865875 
	C187.022034,338.737762 189.745789,339.097351 187.904861,343.572235 
	C187.003021,343.762848 185.644302,344.050018 184.102753,344.375854 
	C184.102753,345.655609 184.102753,346.946198 184.102753,348.571075 
	C185.478317,348.801910 187.013733,349.059570 188.706879,349.343719 
	C188.706879,350.767883 188.706879,352.054108 188.706879,353.677551 
	C185.549469,353.677551 182.311035,353.677551 178.827820,353.677551 
	C178.827820,345.953552 178.827820,338.204773 178.827820,329.419037 
	C182.053665,331.851654 187.181839,326.297821 188.555618,333.715576 
z"/>
<path fill="#D1D2D2" opacity="1.000000" stroke="none" 
	d="
M147.767990,344.004761 
	C146.357346,345.223236 145.363831,346.430511 143.784485,348.349640 
	C146.587997,348.783569 148.013443,349.004211 149.785645,349.278503 
	C149.880188,350.615051 149.980240,352.029541 150.101212,353.739624 
	C146.727890,353.739624 143.626282,353.739624 140.164368,353.739624 
	C140.164368,346.064758 140.164368,338.338715 140.164368,330.296021 
	C143.143585,330.296021 146.212418,330.296021 149.542908,330.296021 
	C149.542908,331.632507 149.542908,332.897430 149.542908,333.864014 
	C148.020798,334.984528 146.548187,336.068604 145.075592,337.152679 
	C146.362610,338.033905 147.649643,338.915131 149.770020,340.366943 
	C149.419342,341.169403 148.802231,342.581451 147.767990,344.004761 
z"/>
<path fill="#C2C4C4" opacity="1.000000" stroke="none" 
	d="
M226.689255,342.080475 
	C226.689255,346.203644 226.689255,349.846558 226.689255,353.780212 
	C224.901764,353.883392 223.476654,353.965637 222.032608,354.048981 
	C221.748169,353.404999 221.404510,352.981018 221.395523,352.550049 
	C221.329651,349.385315 221.507538,346.205383 221.260834,343.057465 
	C221.015564,339.927795 222.939697,336.133667 218.695511,333.971222 
	C218.230225,333.734161 218.632721,331.793915 218.632721,330.297729 
	C222.145309,330.297729 225.534210,330.297729 229.351089,330.297729 
	C228.449097,334.127747 227.569183,337.863983 226.689255,342.080475 
z"/>
<path fill="#C2C4C4" opacity="1.000000" stroke="none" 
	d="
M164.689270,339.053131 
	C164.689255,342.701630 164.689255,345.862732 164.689255,348.609100 
	C166.612457,349.964478 168.279663,351.139435 169.946854,352.314392 
	C169.694000,352.794128 169.441132,353.273834 169.188263,353.753540 
	C166.090881,353.753540 162.993500,353.753540 159.518524,353.753540 
	C159.518524,346.129456 159.518524,338.408142 159.518524,330.236786 
	C160.941986,330.136627 162.498306,330.027100 164.689285,329.872955 
	C164.689285,333.015533 164.689285,335.790619 164.689270,339.053131 
z"/>
<path fill="#CECFCF" opacity="1.000000" stroke="none" 
	d="
M308.199585,335.120575 
	C308.199585,341.562042 308.199585,347.517151 308.199585,353.742828 
	C306.447052,353.742828 305.044159,353.742828 303.362335,353.742828 
	C303.362335,345.982727 303.362335,338.255829 303.362335,330.253937 
	C304.852997,330.253937 306.250580,330.253937 307.962952,330.253937 
	C308.043274,331.740784 308.121399,333.187500 308.199585,335.120575 
z"/>
<path fill="#2F3A3D" opacity="1.000000" stroke="none" 
	d="
M203.543640,340.028961 
	C203.193344,338.192383 203.193344,336.328491 203.193344,334.464600 
	C203.665131,334.408783 204.136917,334.352997 204.608719,334.297180 
	C204.801758,335.872223 204.994797,337.447266 205.237579,339.420166 
	C204.822845,339.879211 204.358398,339.940430 203.543640,340.028961 
z"/>
<path fill="#2F3A3D" opacity="1.000000" stroke="none" 
	d="
M204.774414,344.035828 
	C205.090927,345.923553 205.090927,347.795074 205.090927,349.666626 
	C204.555130,349.708923 204.019318,349.751190 203.483521,349.793488 
	C203.312088,348.114258 203.140656,346.435028 203.081299,344.349701 
	C203.614868,343.968964 204.036392,343.994324 204.774414,344.035828 
z"/>
<path fill="#061C23" opacity="1.000000" stroke="none" 
	d="
M263.684662,195.840500 
	C267.043549,194.895157 269.237671,196.181580 269.439209,199.059326 
	C269.545258,200.573914 268.089569,202.896896 266.703979,203.595749 
	C265.595337,204.154907 262.969971,203.305801 262.002319,202.211258 
	C260.014160,199.962448 260.761261,197.606445 263.684662,195.840500 
z"/>
<path fill="#061C23" opacity="1.000000" stroke="none" 
	d="
M281.909607,78.818947 
	C280.231720,75.813675 280.850067,73.442398 283.629333,72.464340 
	C284.985870,71.986969 287.665466,72.519852 288.335541,73.530624 
	C289.191406,74.821686 289.322083,77.486946 288.519257,78.795403 
	C286.921326,81.399773 284.378906,80.895515 281.909607,78.818947 
z"/>
<path fill="#061C23" opacity="1.000000" stroke="none" 
	d="
M138.305084,198.445206 
	C135.077850,197.195969 134.029510,194.985764 135.564453,192.430283 
	C136.311554,191.186462 138.712952,189.830811 139.833023,190.189316 
	C141.316788,190.664230 143.048630,192.642212 143.302795,194.198212 
	C143.804901,197.272202 141.542084,198.501907 138.305084,198.445206 
z"/>
<path fill="#04181E" opacity="1.000000" stroke="none" 
	d="
M223.599960,46.182999 
	C222.795517,41.356167 224.305023,38.861641 227.415359,39.600246 
	C228.789337,39.926521 230.670776,41.213337 230.924362,42.370377 
	C231.236130,43.792839 230.481766,46.508846 229.479446,46.914501 
	C227.921616,47.545010 225.765717,46.697823 223.599960,46.182999 
z"/>
<path fill="#03141A" opacity="1.000000" stroke="none" 
	d="
M321.088989,273.959717 
	C320.264740,268.553131 319.906006,263.205475 319.517609,257.415283 
	C322.221191,257.415283 324.233124,257.415283 326.586853,257.415283 
	C326.586853,262.866180 326.586853,268.222748 326.586853,274.018677 
	C324.781708,274.018677 323.168121,274.018677 321.088989,273.959717 
z"/>
<path fill="#03141A" opacity="1.000000" stroke="none" 
	d="
M145.967117,264.083862 
	C145.967117,261.651886 145.967117,259.697632 145.967117,257.377136 
	C148.328705,257.377136 150.221588,257.377136 152.576538,257.377136 
	C152.576538,262.579163 152.576538,267.924347 152.576538,273.659485 
	C150.746506,273.659485 148.702408,273.659485 145.967117,273.659485 
	C145.967117,270.717712 145.967117,267.639618 145.967117,264.083862 
z"/>
<path fill="#04181E" opacity="1.000000" stroke="none" 
	d="
M225.236694,279.958893 
	C225.236725,272.200775 225.236725,264.936401 225.236725,257.337952 
	C227.706528,257.337952 229.597351,257.337952 232.295685,257.337952 
	C232.295685,263.154846 232.296219,269.063354 232.295532,274.971863 
	C232.295013,279.451263 232.212112,283.932709 232.322968,288.409332 
	C232.385773,290.945740 231.352005,292.517639 228.885712,291.758331 
	C227.464157,291.320679 225.705582,289.737274 225.405716,288.380676 
	C224.846130,285.849243 225.239700,283.107086 225.236694,279.958893 
z"/>
<path fill="#2F3A3D" opacity="1.000000" stroke="none" 
	d="
M266.765869,345.646362 
	C266.567932,347.296417 266.371002,348.498383 266.174072,349.700378 
	C265.844299,349.665527 265.514496,349.630646 265.184723,349.595795 
	C265.184723,344.561798 265.184723,339.527802 265.184723,334.493805 
	C265.712097,334.469147 266.239502,334.444489 266.766876,334.419830 
	C266.766876,338.012634 266.766876,341.605469 266.765869,345.646362 
z"/>
</svg>